# xmcd CD database file
#
# Track frame offsets:
#	150
#	11065
#	22940
#	33598
#	50673
#	61298
#	72988
#	84000
#	98948
#	111913
#	125820
#	138240
#	148933
#	164555
#	176820
#	185733
#
# Disc length: 2645 seconds
#
# Revision: 2
# Processed by: cddbd v1.4b41PL1 Copyright (c) Steve Scherf et al.
# Submitted via: Feurio! 1.50.2ß - http://www.feurio.com
#
DISCID=ec0a5310
DTITLE=Charles Aznavour - Les Comediens
DYEAR=1900
DGENRE=
TTITLE0=Les Comediens
TTITLE1=Esperanza
TTITLE2=For Me.....Formidable
TTITLE3=La Mamma
TTITLE4=Je Ne Peux Pas Rentrer Chez Moi
TTITLE5=J`Aime Paris Au Mois De Mai
TTITLE6=Je Te Donnerai
TTITLE7=Ce Sacre Piano
TTITLE8=Oublie Loulou
TTITLE9=Sur Ma Vie
TTITLE10=Apres L`Amour
TTITLE11=Je Veux Te Dire Adieu
TTITLE12=Sa Jeunesse 
TTITLE13=Le Feutre Taupe
TTITLE14=C`Est Merveilleux L`Amour
TTITLE15=Si Je N`Avais Plus
EXTD=
EXTT0=
EXTT1=
EXTT2=
EXTT3=
EXTT4=
EXTT5=
EXTT6=
EXTT7=
EXTT8=
EXTT9=
EXTT10=
EXTT11=
EXTT12=
EXTT13=
EXTT14=
EXTT15=
PLAYORDER=
